# ProBuilder 4.2.3
# https://unity3d.com/unity/features/worldbuilding/probuilder
# 8/5/2020 10:25:42 AM

mtllib ./Coin.mtl
o Coin

g Cylinder
v -2.186014 -0.4999993 0.02353488
v -3.000003 -2.073205E-06 0
v -1.539844 -0.4999994 1.583501
v -2.121323 -2.073205E-06 2.12132
v 0.02013443 -0.4999996 2.229647
v -2.384186E-06 -2.073205E-06 3
v 1.580077 -0.4999997 1.583501
v 2.121318 -2.073205E-06 2.12132
v 2.226247 -0.4999998 0.02353488
v 2.999997 -2.073205E-06 -2.622683E-07
v 1.580077 -0.4999997 -1.536432
v 2.121318 -2.073205E-06 -2.12132
v 0.02013443 -0.4999996 -2.182601
v -2.622605E-06 -2.073205E-06 -3
v -1.539844 -0.4999994 -1.536432
v -2.121323 -2.073205E-06 -2.121321
v -2.380719 0.4999945 -0.0640517
v -1.703248 0.4999975 1.571513
v -0.06770635 0.4999972 2.248972
v 1.567847 0.4999971 1.571513
v 2.245318 0.499997 -0.0640517
v 1.567847 0.4999971 -1.699617
v -0.06770635 0.4999972 -2.377076
v -1.703248 0.4999975 -1.699617
v -1.826641 -0.246792 -0.06465111
v -0.0281065 -0.2467923 -0.06465111
v -1.299874 -0.2467921 1.207045
v -1.881799 0.2271418 -0.07146047
v 0.02694388 0.2271446 -0.07146047
v -1.322748 0.2271447 1.278231
v -0.02809451 -0.2467923 1.733787
v 0.02694388 0.2271446 1.83727
v 1.243589 -0.2467924 1.207045
v 1.376624 0.2271444 1.278231
v 1.770356 -0.2467925 -0.06465111
v 1.935687 0.2271444 -0.07146047
v 1.243589 -0.2467924 -1.336371
v 1.376624 0.2271444 -1.421152
v -0.02809451 -0.2467923 -1.863137
v 0.02694388 0.2271446 -1.980191
v -1.299874 -0.2467921 -1.336371
v -1.322748 0.2271447 -1.421152

vt -1.592492 -0.3143226
vt -2.547766 -0.3384138
vt -1.043729 1.282515
vt -1.801543 1.833044
vt -1.359595 0.8820253
vt -2.050052 1.51498
vt 0.1479734 1.64247
vt -1.771207E-06 2.549084
vt -0.1117064 1.622832
vt -2.844469E-06 2.534626
vt 1.393629 0.85805
vt 2.047058 1.494617
vt 1.048324 1.260332
vt 1.775 1.811812
vt 1.589003 -0.3392611
vt 2.51023 -0.3633923
vt 1.607694 0.3751211
vt 2.528921 0.3510087
vt 1.062989 -1.223105
vt 1.788217 -1.822337
vt 1.406727 -0.8681695
vt 2.055055 -1.549863
vt -0.104488 -1.621287
vt -3.054812E-06 -2.573981
vt 0.141169 -1.63888
vt -2.039444E-06 -2.586832
vt -1.371942 -0.8895044
vt -2.05759 -1.567809
vt -1.056901 -1.244424
vt -1.813413 -1.842669
vt -1.609279 0.3511667
vt -2.564553 0.3270929
vt 2.372155 -0.4514131
vt 1.576388 -0.517492
vt 1.677368 1.737045
vt 1.040698 1.169836
vt 2.0393 1.443102
vt 1.499697 0.7828727
vt 2.862931E-06 2.498255
vt -0.07260392 1.596394
vt 0.1938903 1.665667
vt -2.050114 1.515455
vt -1.386764 0.8684742
vt -1.7867 1.821129
vt -1.050997 1.257782
vt -2.526775 -0.3524319
vt -1.621604 -0.4180605
vt -2.47308 0.3876643
vt -1.567921 0.3218758
vt -1.748732 -1.791188
vt -1.00944 -1.358047
vt -2.021475 -1.331915
vt -1.342463 -0.8093183
vt 1.87061E-06 -2.420819
vt 0.2161094 -1.648864
vt 3.158447E-06 -2.349726
vt -0.100453 -1.554411
vt 2.003383 -1.227877
vt 1.444156 -0.6894665
vt 1.621491 -1.696565
vt 0.9795392 -1.26008
vt 2.293133 0.4991077
vt 1.497384 0.4328101
vt -1.826641 -0.06465111
vt -0.02810647 -0.06465111
vt -1.299874 1.207045
vt 1.881799 -0.07146011
vt -0.02694421 -0.07146011
vt 1.322748 1.278232
vt -0.02809448 1.733787
vt -0.02694385 1.83727
vt 1.243589 1.207045
vt -1.376624 1.278231
vt 1.770356 -0.06465111
vt -1.935687 -0.07146047
vt 1.243589 -1.336371
vt -1.376624 -1.421152
vt -0.02809448 -1.863137
vt -0.02694385 -1.980191
vt -1.299874 -1.336371
vt 1.322748 -1.421152
vt -0.1462596 -2.004511
vt -1.618563 -1.177836
vt -0.1080866 -1.595805
vt -1.308389 -0.9218754
vt 1.657262 -1.257708
vt 0.1668469 -2.051194
vt 1.26102 -1.012037
vt 0.04601571 -1.658897
vt -1.520202 -1.350645
vt -2.028642 0.2594853
vt -1.175116 -1.14415
vt -1.589604 0.1684627
vt -2.110974 -0.1418344
vt -1.566618 1.456511
vt -1.671798 -0.23219
vt -1.228031 1.070793
vt -1.611371 1.47744
vt -0.08795542 2.205617
vt -1.322526 1.05319
vt -0.08055463 1.646812
vt 0.1193536 2.219931
vt 1.648019 1.502917
vt 0.02164113 1.669685
vt 1.267827 1.08517
vt 1.633835 1.504116
vt 2.208484 -0.08358941
vt 1.218801 1.120965
vt 1.687263 -0.1733439
vt 2.164237 0.1743102
vt 1.611078 -1.42101
vt 1.643089 0.08412567
vt 1.192147 -1.216414
vt -2.020542 -0.3507025
vt -1.510078 1.344428
vt -1.607848 -0.3583811
vt -1.186604 1.040465
vt -1.503578 -1.461031
vt -2.00964 0.2354188
vt -1.179334 -1.172201
vt -1.596946 0.2277348
vt -1.645478 1.300196
vt -0.08038091 2.127514
vt -1.383272 0.9420386
vt -0.09173302 1.624744
vt 0.1872372 2.176718
vt 1.773703 1.39118
vt 0.0290894 1.699334
vt 1.338283 1.051103
vt 1.735249 1.469043
vt 2.330473 -0.1982155
vt 1.270639 1.170077
vt 1.761819 -0.2057672
vt 2.326833 0.07616618
vt 1.733291 -1.591691
vt 1.758178 0.06861113
vt 1.268387 -1.307728
vt 1.774214 -1.483112
vt 0.1909829 -2.27515
vt 1.33743 -1.157551
vt 0.03090513 -1.811146
vt -0.08608484 -2.214766
vt -1.645637 -1.377042
vt -0.09412862 -1.723991
vt -1.381091 -1.032698

vn -0.515792 -0.8296455 0.2136514
vn -0.218398 -0.821148 0.5272743
vn 0.2215875 -0.8152999 0.5349627
vn 0.5340283 -0.816016 0.2212054
vn 0.5250748 -0.822795 -0.2174967
vn 0.2127715 -0.8311929 -0.51366
vn -0.2097743 -0.8363718 -0.5064355
vn -0.5072894 -0.8357649 -0.2101295
vn -0.593401 0.7664595 0.2457948
vn -0.2293282 0.800552 0.5536472
vn 0.2183283 0.8212842 0.527091
vn 0.526117 0.8220156 0.2179248
vn 0.5511185 0.8025935 -0.2282807
vn 0.2446488 0.768959 -0.5906345
vn -0.2575236 0.7396955 -0.6217171
vn -0.6229364 0.7384927 -0.2580288
vn -1.159924E-07 -1 1.176572E-09
vn -1.452064E-06 1 -1.573508E-06
vn 0.2583547 -0.7377182 0.6237185
vn -0.2404105 -0.7780473 0.5803837
vn 0.5979128 -0.7623391 0.2476677
vn 0.5258598 -0.8222075 -0.2178218
vn 0.1909891 -0.8665496 -0.4611019
vn -0.1795529 -0.8830939 -0.4334812
vn -0.4493026 -0.8737792 -0.1861102
vn -0.5054252 -0.8370872 0.2093573
vn -0.6343637 0.727007 -0.2627615
vn -0.6409784 0.7201775 0.2655014
vn -0.237751 0.7835883 -0.5739894
vn 0.2096754 0.8365367 -0.5062041
vn 0.4684848 0.8618963 -0.1940538
vn 0.472767 0.8591525 0.1958275
vn 0.2145915 0.8279804 0.5180724
vn -0.2436516 0.7711119 0.5882349

usemtl Coin
f 25/64/17 26/65/17 27/66/17
f 27/66/17 26/65/17 31/70/17
f 31/70/17 26/65/17 33/72/17
f 33/72/17 26/65/17 35/74/17
f 35/74/17 26/65/17 37/76/17
f 37/76/17 26/65/17 39/78/17
f 39/78/17 26/65/17 41/80/17
f 41/80/17 26/65/17 25/64/17
f 30/69/18 29/68/18 28/67/18
f 32/71/18 29/68/18 30/69/18
f 34/73/18 29/68/18 32/71/18
f 36/75/18 29/68/18 34/73/18
f 38/77/18 29/68/18 36/75/18
f 40/79/18 29/68/18 38/77/18
f 42/81/18 29/68/18 40/79/18
f 28/67/18 29/68/18 42/81/18
f 4/4/1 2/2/1 1/1/1
f 1/1/1 3/3/1 4/4/1
f 6/8/2 4/6/2 3/5/2
f 3/5/2 5/7/2 6/8/2
f 8/12/3 6/10/3 5/9/3
f 5/9/3 7/11/3 8/12/3
f 10/16/4 8/14/4 7/13/4
f 7/13/4 9/15/4 10/16/4
f 12/20/5 10/18/5 9/17/5
f 9/17/5 11/19/5 12/20/5
f 14/24/6 12/22/6 11/21/6
f 11/21/6 13/23/6 14/24/6
f 16/28/7 14/26/7 13/25/7
f 13/25/7 15/27/7 16/28/7
f 2/32/8 16/30/8 15/29/8
f 15/29/8 1/31/8 2/32/8
f 18/36/9 17/34/9 2/33/9
f 2/33/9 4/35/9 18/36/9
f 19/40/10 18/38/10 4/37/10
f 4/37/10 6/39/10 19/40/10
f 20/43/11 19/41/11 6/8/11
f 6/8/11 8/42/11 20/43/11
f 21/47/12 20/45/12 8/44/12
f 8/44/12 10/46/12 21/47/12
f 22/51/13 21/49/13 10/48/13
f 10/48/13 12/50/13 22/51/13
f 23/55/14 22/53/14 12/52/14
f 12/52/14 14/54/14 23/55/14
f 24/59/15 23/57/15 14/56/15
f 14/56/15 16/58/15 24/59/15
f 17/63/16 24/61/16 16/60/16
f 16/60/16 2/62/16 17/63/16
f 41/85/19 15/83/19 13/82/19
f 13/82/19 39/84/19 41/85/19
f 39/89/20 13/87/20 11/86/20
f 11/86/20 37/88/20 39/89/20
f 25/93/21 1/91/21 15/90/21
f 15/90/21 41/92/21 25/93/21
f 27/97/22 3/95/22 1/94/22
f 1/94/22 25/96/22 27/97/22
f 31/101/23 5/99/23 3/98/23
f 3/98/23 27/100/23 31/101/23
f 33/105/24 7/103/24 5/102/24
f 5/102/24 31/104/24 33/105/24
f 35/109/25 9/107/25 7/106/25
f 7/106/25 33/108/25 35/109/25
f 37/113/26 11/111/26 9/110/26
f 9/110/26 35/112/26 37/113/26
f 34/117/27 20/115/27 21/114/27
f 21/114/27 36/116/27 34/117/27
f 36/121/28 21/119/28 22/118/28
f 22/118/28 38/120/28 36/121/28
f 32/125/29 19/123/29 20/122/29
f 20/122/29 34/124/29 32/125/29
f 30/129/30 18/127/30 19/126/30
f 19/126/30 32/128/30 30/129/30
f 28/133/31 17/131/31 18/130/31
f 18/130/31 30/132/31 28/133/31
f 42/137/32 24/135/32 17/134/32
f 17/134/32 28/136/32 42/137/32
f 40/141/33 23/139/33 24/138/33
f 24/138/33 42/140/33 40/141/33
f 38/145/34 22/143/34 23/142/34
f 23/142/34 40/144/34 38/145/34

